<?xml version="1.0" encoding="UTF-8"?>
<svg viewBox="0 0 800 520" xmlns="http://www.w3.org/2000/svg">
  <defs>
    <linearGradient id="flGradient" x1="0%" y1="0%" x2="100%" y2="100%">
      <stop offset="0%" style="stop-color:#c9a227"/>
      <stop offset="100%" style="stop-color:#e0c54a"/>
    </linearGradient>
    <filter id="glow" x="-20%" y="-20%" width="140%" height="140%">
      <feGaussianBlur stdDeviation="2" result="blur"/>
      <feComposite in="SourceGraphic" in2="blur" operator="over"/>
    </filter>
    <style>
      .state { stroke: #1a3a5c; stroke-width: 1.5; transition: all 0.3s; cursor: pointer; }
      .state:hover { filter: drop-shadow(0 0 4px rgba(26,58,92,0.4)); stroke-width: 2.5; }
      .live { fill: url(#flGradient); }
      .live:hover { filter: drop-shadow(0 0 6px rgba(201,162,39,0.6)); }
      .coming { fill: #2d5a3d; }
      .coming:hover { fill: #1a3a5c; }
      text { font-family: -apple-system, BlinkMacSystemFont, sans-serif; font-weight: 600; pointer-events: none; }
      .state-label { font-size: 11px; fill: white; }
      .live-text { fill: #1a3a5c; font-size: 14px; font-weight: 700; }
      .pulse { animation: pulse 2s ease-in-out infinite; }
      @keyframes pulse { 0%, 100% { opacity: 0.6; r: 4; } 50% { opacity: 0.2; r: 12; } }
      .live-pulse { fill: #1a3a5c; animation: pulse 2s ease-in-out infinite; }
    </style>
  </defs>

  <!-- Background -->
  <rect width="800" height="520" fill="#f8f9fa"/>
  <rect width="800" height="520" fill="#1a3a5c" fill-opacity="0.02"/>

  <!-- ME -->
  <g class="state-group" data-state="ME">
    <path class="state coming" d="M 735,25 L 760,15 L 775,30 L 780,50 L 775,75 L 765,90 L 755,95 L 745,85 L 730,70 L 720,50 L 715,35 L 725,25 Z"/>
    <text x="740" y="55" text-anchor="middle" class="state-label" font-size="10">ME</text>
  </g>

  <!-- VT -->
  <g class="state-group" data-state="VT">
    <path class="state coming" d="M 685,55 L 710,45 L 720,65 L 715,85 L 710,100 L 690,105 L 678,90 L 680,70 Z"/>
    <text x="698" y="82" text-anchor="middle" class="state-label" font-size="10">VT</text>
  </g>

  <!-- NH -->
  <g class="state-group" data-state="NH">
    <path class="state coming" d="M 715,45 L 745,35 L 755,55 L 750,80 L 740,95 L 725,100 L 718,85 Z"/>
    <text x="720" y="72" text-anchor="middle" class="state-label" font-size="10">NH</text>
  </g>

  <!-- MA -->
  <g class="state-group" data-state="MA">
    <path class="state coming" d="M 700,75 L 730,65 L 745,80 L 750,95 L 740,110 L 725,115 L 710,110 L 695,100 L 690,85 Z"/>
    <text x="720" y="95" text-anchor="middle" class="state-label" font-size="10">MA</text>
  </g>

  <!-- CT -->
  <g class="state-group" data-state="CT">
    <path class="state coming" d="M 700,105 L 725,98 L 735,115 L 730,125 L 710,130 L 695,118 Z"/>
    <text x="712" y="118" text-anchor="middle" class="state-label" font-size="10">CT</text>
  </g>

  <!-- RI -->
  <g class="state-group" data-state="RI">
    <path class="state coming" d="M 735,112 L 750,108 L 755,125 L 745,135 Z"/>
    <text x="742" y="122" text-anchor="middle" class="state-label" font-size="10">RI</text>
  </g>

  <!-- NY -->
  <g class="state-group" data-state="NY">
    <path class="state coming" d="M 610,45 L 650,35 L 685,25 L 705,35 L 715,50 L 710,75 L 700,95 L 680,110 L 665,120 L 645,125 L 625,115 L 615,95 L 605,65 Z"/>
    <text x="650" y="80" text-anchor="middle" class="state-label" font-size="10">NY</text>
  </g>

  <!-- PA -->
  <g class="state-group" data-state="PA">
    <path class="state coming" d="M 600,115 L 655,110 L 685,105 L 710,120 L 705,150 L 675,165 L 635,170 L 605,155 L 590,135 Z"/>
    <text x="648" y="140" text-anchor="middle" class="state-label" font-size="10">PA</text>
  </g>

  <!-- NJ -->
  <g class="state-group" data-state="NJ">
    <path class="state coming" d="M 680,135 L 710,130 L 720,155 L 705,175 L 680,170 L 670,150 Z"/>
    <text x="693" y="152" text-anchor="middle" class="state-label" font-size="10">NJ</text>
  </g>

  <!-- DE -->
  <g class="state-group" data-state="DE">
    <path class="state coming" d="M 655,160 L 680,155 L 685,175 L 665,180 L 650,172 Z"/>
    <text x="665" y="168" text-anchor="middle" class="state-label" font-size="10">DE</text>
  </g>

  <!-- ND -->
  <g class="state-group" data-state="ND">
    <path class="state coming" d="M 280,40 L 380,35 L 395,65 L 385,95 L 285,100 L 275,70 Z"/>
    <text x="330" y="67" text-anchor="middle" class="state-label" font-size="10">ND</text>
  </g>

  <!-- MN -->
  <g class="state-group" data-state="MN">
    <path class="state coming" d="M 320,50 L 395,40 L 410,70 L 400,125 L 370,140 L 335,115 L 320,70 Z"/>
    <text x="365" y="95" text-anchor="middle" class="state-label" font-size="10">MN</text>
  </g>

  <!-- WI -->
  <g class="state-group" data-state="WI">
    <path class="state coming" d="M 400,85 L 440,80 L 450,125 L 435,155 L 395,150 L 380,115 Z"/>
    <text x="415" y="115" text-anchor="middle" class="state-label" font-size="10">WI</text>
  </g>

  <!-- MI -->
  <g class="state-group" data-state="MI">
    <path class="state coming" d="M 445,90 L 520,75 L 535,115 L 515,160 L 470,170 L 455,155 L 445,115 L 440,95 Z"/>
    <text x="480" y="115" text-anchor="middle" class="state-label" font-size="10">MI</text>
  </g>

  <!-- IA -->
  <g class="state-group" data-state="IA">
    <path class="state coming" d="M 360,160 L 405,155 L 430,175 L 420,215 L 375,220 L 355,185 Z"/>
    <text x="380" y="185" text-anchor="middle" class="state-label" font-size="10">IA</text>
  </g>

  <!-- IL -->
  <g class="state-group" data-state="IL">
    <path class="state coming" d="M 405,155 L 435,150 L 445,205 L 430,245 L 405,240 L 395,185 L 400,160 Z"/>
    <text x="420" y="195" text-anchor="middle" class="state-label" font-size="10">IL</text>
  </g>

  <!-- IN -->
  <g class="state-group" data-state="IN">
    <path class="state coming" d="M 440,150 L 470,145 L 475,200 L 450,205 L 440,170 Z"/>
    <text x="455" y="178" text-anchor="middle" class="state-label" font-size="10">IN</text>
  </g>

  <!-- OH -->
  <g class="state-group" data-state="OH">
    <path class="state coming" d="M 475,145 L 515,135 L 525,185 L 495,200 L 470,170 Z"/>
    <text x="495" y="175" text-anchor="middle" class="state-label" font-size="10">OH</text>
  </g>

  <!-- MO -->
  <g class="state-group" data-state="MO">
    <path class="state coming" d="M 330,205 L 375,200 L 420,215 L 415,265 L 370,270 L 325,245 Z"/>
    <text x="375" y="235" text-anchor="middle" class="state-label" font-size="10">MO</text>
  </g>

  <!-- WV -->
  <g class="state-group" data-state="WV">
    <path class="state coming" d="M 490,185 L 520,180 L 530,210 L 515,230 L 480,220 L 475,195 Z"/>
    <text x="505" y="205" text-anchor="middle" class="state-label" font-size="10">WV</text>
  </g>

  <!-- KY -->
  <g class="state-group" data-state="KY">
    <path class="state coming" d="M 440,215 L 485,210 L 530,205 L 540,235 L 510,255 L 450,255 L 430,240 Z"/>
    <text x="480" y="230" text-anchor="middle" class="state-label" font-size="10">KY</text>
  </g>

  <!-- VA -->
  <g class="state-group" data-state="VA">
    <path class="state coming" d="M 515,185 L 560,175 L 580,210 L 565,250 L 540,240 L 525,210 Z"/>
    <text x="550" y="215" text-anchor="middle" class="state-label" font-size="10">VA</text>
  </g>

  <!-- NC -->
  <g class="state-group" data-state="NC">
    <path class="state coming" d="M 530,240 L 585,230 L 610,265 L 585,295 L 545,285 L 530,255 Z"/>
    <text x="570" y="265" text-anchor="middle" class="state-label" font-size="10">NC</text>
  </g>

  <!-- SC -->
  <g class="state-group" data-state="SC">
    <path class="state coming" d="M 545,285 L 590,275 L 600,310 L 575,330 L 550,315 Z"/>
    <text x="572" y="302" text-anchor="middle" class="state-label" font-size="10">SC</text>
  </g>

  <!-- GA -->
  <g class="state-group" data-state="GA">
    <path class="state coming" d="M 470,305 L 540,295 L 575,325 L 565,370 L 495,365 L 475,335 Z"/>
    <text x="520" y="330" text-anchor="middle" class="state-label" font-size="10">GA</text>
  </g>

  <!-- FL -->
  <g class="state-group" data-state="FL">
    <path class="state live" d="M 475,365 L 560,355 L 590,380 L 575,430 L 540,475 L 500,480 L 475,465 L 460,430 L 450,385 Z"/>
    <circle cx="520" cy="400" r="20" class="live-pulse" fill="none" stroke="#c9a227" stroke-width="2"/>
    <circle cx="530" cy="420" class="live-pulse"/>
    <text x="515" y="410" text-anchor="middle" class="live-text">FL</text>
    <text x="515" y="428" text-anchor="middle" class="live-text" font-size="9" font-weight="500">LIVE NOW</text>
  </g>

  <!-- AL -->
  <g class="state-group" data-state="AL">
    <path class="state coming" d="M 440,270 L 485,260 L 505,285 L 495,340 L 460,345 L 440,300 Z"/>
    <text x="470" y="307" text-anchor="middle" class="state-label" font-size="10">AL</text>
  </g>

  <!-- MS -->
  <g class="state-group" data-state="MS">
    <path class="state coming" d="M 400,285 L 440,275 L 450,330 L 435,370 L 405,360 L 395,310 Z"/>
    <text x="420" y="320" text-anchor="middle" class="state-label" font-size="10">MS</text>
  </g>

  <!-- LA -->
  <g class="state-group" data-state="LA">
    <path class="state coming" d="M 360,350 L 405,340 L 430,380 L 420,415 L 380,420 L 350,380 Z"/>
    <text x="385" y="375" text-anchor="middle" class="state-label" font-size="10">LA</text>
  </g>

  <!-- AR -->
  <g class="state-group" data-state="AR">
    <path class="state coming" d="M 370,265 L 415,260 L 440,270 L 435,310 L 405,330 L 365,310 Z"/>
    <text x="400" y="285" text-anchor="middle" class="state-label" font-size="10">AR</text>
  </g>

  <!-- OK -->
  <g class="state-group" data-state="OK">
    <path class="state coming" d="M 300,280 L 370,275 L 385,335 L 365,370 L 295,355 Z"/>
    <text x="335" y="315" text-anchor="middle" class="state-label" font-size="10">OK</text>
  </g>

  <!-- TX -->
  <g class="state-group" data-state="TX">
    <path class="state coming" d="M 250,350 L 320,345 L 370,335 L 395,380 L 370,450 L 320,465 L 280,435 L 250,395 Z"/>
    <text x="315" y="395" text-anchor="middle" class="state-label" font-size="10">TX</text>
  </g>

  <!-- NM -->
  <g class="state-group" data-state="NM">
    <path class="state coming" d="M 190,280 L 265,275 L 295,355 L 285,405 L 200,395 L 185,335 Z"/>
    <text x="235" y="335" text-anchor="middle" class="state-label" font-size="10">NM</text>
  </g>

  <!-- HI -->
  <g class="state-group" data-state="HI">
    <path class="state coming" d="M 80,410 L 100,400 L 130,395 L 160,405 L 180,425 L 160,445 L 130,450 L 100,445 L 80,430 Z"/>
    <text x="130" y="425" text-anchor="middle" class="state-label" font-size="10">HI</text>
  </g>

  <!-- Legend -->
  <g transform="translate(50, 480)">
    <rect x="0" y="0" width="25" height="18" fill="url(#flGradient)" rx="4" stroke="#c9a227" stroke-width="1"/>
    <text x="35" y="14" fill="#1a3a5c" font-size="13" font-weight="600" font-family="-apple-system, sans-serif">Live Now</text>
    <rect x="130" y="0" width="25" height="18" fill="#2d5a3d" rx="4"/>
    <text x="165" y="14" fill="#1a3a5c" font-size="13" font-family="-apple-system, sans-serif">Coming 2024-2025</text>
  </g>

  <!-- Title -->
  <text x="400" y="35" text-anchor="middle" fill="#1a3a5c" font-size="22" font-weight="700" font-family="-apple-system, sans-serif">LisPendensData Coverage</text>
  <text x="400" y="58" text-anchor="middle" fill="#666" font-size="13" font-family="-apple-system, sans-serif">21 States • 2,000+ Counties • Weekly &amp; Daily Data</text>

  <!-- Simple interactive hover script -->
  <script>//<![CDATA[
    document.querySelectorAll(".state-group").forEach(function(g) {
      g.addEventListener("click", function() {
        var s = this.getAttribute("data-state");
        if (s === "FL") { window.location.href = "/"; }
        else { alert(s + " is coming soon!"); }
      });
    });
  //]]></script>
</svg>